<svg width="62" height="56" viewBox="0 0 62 56" fill="none" xmlns="http://www.w3.org/2000/svg">
<path d="M54.5376 23.1529C54.0408 22.573 53.2477 22.3499 52.5238 22.5853L46.912 24.215C45.8427 24.5638 44.6798 24.4785 43.6707 23.9783L37.2125 20.7931L42.94 13.1597C43.3789 12.7022 43.4635 12.0023 43.1405 11.4516C42.8197 10.9032 42.1715 10.6362 41.561 10.8L30.2018 15.8145L32.414 16.9069L30.8925 17.6729L28.5778 16.5312L18.6511 11.6322C13.1686 8.91795 8.70193 9.80841 7.29624 12.6888C5.89055 15.57 9.78915 17.3522 12.6496 18.7675L22.5586 23.6801L27.6913 46.5981C27.8672 47.446 28.6291 48.0405 29.4935 47.9978C30.3534 47.954 31.0529 47.289 31.1465 46.4243L34.3299 29.5121L41.227 32.9318C45.6401 34.9833 50.345 34.7858 51.7507 31.9066L54.805 25.2412C55.1413 24.5549 55.0366 23.7317 54.5376 23.1529Z" fill="#2261A2"/>
</svg>
