<svg width="47" height="34" viewBox="0 0 47 34" fill="none" xmlns="http://www.w3.org/2000/svg">
<path d="M24.2197 23.9336C24.2197 21.7245 26.0106 19.9336 28.2197 19.9336C30.4289 19.9336 32.2197 21.7245 32.2197 23.9336V32.9336C32.2197 33.4859 31.772 33.9336 31.2197 33.9336H25.2197C24.6674 33.9336 24.2197 33.4859 24.2197 32.9336V23.9336Z" fill="#2261A2"/>
<rect x="12.689" y="2" width="31.7483" height="20.2981" rx="2" fill="white" stroke="#2261A2" stroke-width="4" stroke-linejoin="round"/>
<path d="M32.4697 12.0006C32.8031 12.193 32.8031 12.6742 32.4697 12.8666L27.2197 15.8977C26.8864 16.0901 26.4697 15.8496 26.4697 15.4647L26.4697 9.4025C26.4697 9.0176 26.8864 8.77704 27.2197 8.96949L32.4697 12.0006Z" fill="#2261A2"/>
<rect x="2" y="8.92969" width="12.3466" height="22.8742" rx="2" fill="#2261A2"/>
<rect x="2" y="8.92969" width="12.3466" height="22.8742" rx="2" stroke="#2261A2" stroke-width="4"/>
<rect x="2" y="8.92969" width="12.3466" height="15.8742" rx="2" fill="white" stroke="#2261A2" stroke-width="2"/>
<path d="M10.4726 16.5068C10.8057 16.6996 10.8051 17.1807 10.4716 17.3728L7.46952 19.1013C7.13596 19.2934 6.71957 19.0523 6.72003 18.6674L6.7241 15.2033C6.72455 14.8184 7.1415 14.5784 7.47461 14.7712L10.4726 16.5068Z" fill="#2261A2"/>
</svg>
