<svg width="48" height="26" viewBox="0 0 48 26" fill="none" xmlns="http://www.w3.org/2000/svg">
<path d="M32.7273 0L39.2727 8.66667H43.6364C46.0582 8.66667 48 10.595 48 13V19.5H43.6364C43.6364 23.0967 40.7127 26 37.0909 26C33.4691 26 30.5455 23.0967 30.5455 19.5H17.4545C17.4545 23.0967 14.5309 26 10.9091 26C7.28727 26 4.36364 23.0967 4.36364 19.5H0V13C0 10.595 1.94182 8.66667 4.36364 8.66667L10.9091 0H32.7273ZM20.7273 3.25H12.5455L8.42182 8.66667H20.7273V3.25ZM24 3.25V8.66667H35.2145L31.0909 3.25H24ZM10.9091 16.25C9.09818 16.25 7.63636 17.7017 7.63636 19.5C7.63636 21.2983 9.09818 22.75 10.9091 22.75C12.72 22.75 14.1818 21.2983 14.1818 19.5C14.1818 17.7017 12.72 16.25 10.9091 16.25ZM37.0909 16.25C35.28 16.25 33.8182 17.7017 33.8182 19.5C33.8182 21.2983 35.28 22.75 37.0909 22.75C38.9018 22.75 40.3636 21.2983 40.3636 19.5C40.3636 17.7017 38.9018 16.25 37.0909 16.25Z" fill="#2261A2"/>
</svg>
