<svg width="28" height="7" viewBox="0 0 28 7" fill="none" xmlns="http://www.w3.org/2000/svg">
<path d="M3.45882 7C2.49804 7 1.68137 6.65972 1.00882 5.97917C0.336275 5.29861 0 4.47222 0 3.5C0 2.52778 0.336275 1.70139 1.00882 1.02083C1.68137 0.340278 2.49804 0 3.45882 0C4.41961 0 5.23627 0.340278 5.90882 1.02083C6.58137 1.70139 6.91765 2.52778 6.91765 3.5C6.91765 4.47222 6.58137 5.29861 5.90882 5.97917C5.23627 6.65972 4.41961 7 3.45882 7ZM14 7C13.0392 7 12.2225 6.65972 11.55 5.97917C10.8775 5.29861 10.5412 4.47222 10.5412 3.5C10.5412 2.52778 10.8775 1.70139 11.55 1.02083C12.2225 0.340278 13.0324 0 13.9794 0C14.9265 0 15.7431 0.340278 16.4294 1.02083C17.1157 1.70139 17.4588 2.52778 17.4588 3.5C17.4588 4.47222 17.1157 5.29861 16.4294 5.97917C15.7431 6.65972 14.9196 7 13.9588 7H14ZM24.5412 7C23.5804 7 22.7637 6.65972 22.0912 5.97917C21.4186 5.29861 21.0824 4.47222 21.0824 3.5C21.0824 2.52778 21.4186 1.70139 22.0912 1.02083C22.7637 0.340278 23.5804 0 24.5412 0C25.502 0 26.3186 0.340278 26.9912 1.02083C27.6637 1.70139 28 2.52778 28 3.5C28 4.47222 27.6637 5.29861 26.9912 5.97917C26.3186 6.65972 25.502 7 24.5412 7Z" fill="#2261A2"/>
</svg>
