<svg width="36" height="40" viewBox="0 0 36 40" fill="none" xmlns="http://www.w3.org/2000/svg">
<rect y="4.72119" width="36" height="23.0164" rx="2" fill="#2261A2"/>
<path d="M4.30859 28.1831C4.30859 27.0785 5.20402 26.1831 6.30859 26.1831C7.41316 26.1831 8.30859 27.0785 8.30859 28.1831V38.1831C8.30859 38.7354 7.86088 39.1831 7.30859 39.1831H5.30859C4.75631 39.1831 4.30859 38.7354 4.30859 38.1831V28.1831Z" fill="#2261A2"/>
<path d="M29.3086 27.6831C29.3086 26.8547 29.9802 26.1831 30.8086 26.1831C31.637 26.1831 32.3086 26.8547 32.3086 27.6831V38.1831C32.3086 38.7354 31.8609 39.1831 31.3086 39.1831H30.3086C29.7563 39.1831 29.3086 38.7354 29.3086 38.1831V27.6831Z" fill="#2261A2"/>
<rect x="2.94971" width="4.13115" height="3.54098" rx="1.77049" fill="#2261A2"/>
<rect x="15.9351" width="4.13115" height="3.54098" rx="1.77049" fill="#2261A2"/>
<rect x="28.9175" width="4.13115" height="3.54098" rx="1.77049" fill="#2261A2"/>
</svg>
