<svg width="68" height="56" viewBox="0 0 68 56" fill="none" xmlns="http://www.w3.org/2000/svg">
<path d="M17.6514 14.7412C17.6514 16.9408 19.4345 18.7239 21.634 18.7239C24.078 18.7239 26.0592 16.7427 26.0592 14.2987V10.3161H17.6514V14.7412Z" fill="#2261A2"/>
<path d="M21.3882 14.2986C21.3882 12.099 19.6051 10.3159 17.4055 10.3159C14.9616 10.3159 12.9804 12.2971 12.9804 14.7411V18.7237H21.3882V14.2986Z" fill="#E3DEFF"/>
<path d="M21.3882 10.3159H44.4142C47.1757 10.3159 49.4142 12.5545 49.4142 15.3159V47.684H26.3882C23.6268 47.684 21.3882 45.4454 21.3882 42.684V10.3159Z" fill="#2261A2"/>
<path d="M22.3223 43.1841C22.3223 45.6694 24.337 47.6841 26.8223 47.6841H50.0193C52.7807 47.6841 55.0193 45.4455 55.0193 42.6841V39.2763H22.3223V43.1841Z" fill="#E3DEFF"/>
<path d="M21.3882 43.7014C21.3882 45.901 23.1713 47.6841 25.3708 47.6841C27.8148 47.6841 29.796 45.7029 29.796 43.2589V39.2763H21.3882V43.7014Z" fill="#2261A2"/>
<path d="M43.7155 18.7239H28.0209C27.5006 18.7239 27.0016 18.8715 26.6337 19.1343C26.2658 19.3971 26.0591 19.7535 26.0591 20.1252C26.0591 20.4968 26.2658 20.8533 26.6337 21.1161C27.0016 21.3788 27.5006 21.5265 28.0209 21.5265H43.7155C44.2358 21.5265 44.7348 21.3788 45.1027 21.1161C45.4706 20.8533 45.6773 20.4968 45.6773 20.1252C45.6773 19.7535 45.4706 19.3971 45.1027 19.1343C44.7348 18.8715 44.2358 18.7239 43.7155 18.7239Z" fill="white"/>
</svg>
