<svg width="42" height="36" viewBox="0 0 42 36" fill="none" xmlns="http://www.w3.org/2000/svg">
<path fill-rule="evenodd" clip-rule="evenodd" d="M27.5613 29.5749C23.2132 29.5749 19.6866 26.1224 19.6866 21.8627C19.6866 17.6043 23.2132 14.1505 27.5613 14.1505C31.9094 14.1505 35.436 17.6043 35.436 21.8627C35.436 26.1224 31.9094 29.5749 27.5613 29.5749ZM14.4369 18.0066H6.56221C5.83643 18.0066 5.24977 17.4321 5.24977 16.7213C5.24977 16.0105 5.83643 15.4359 6.56221 15.4359H14.4369C15.1627 15.4359 15.7493 16.0105 15.7493 16.7213C15.7493 17.4321 15.1627 18.0066 14.4369 18.0066ZM14.4369 23.1481H6.56221C5.83643 23.1481 5.24977 22.5735 5.24977 21.8627C5.24977 21.1519 5.83643 20.5774 6.56221 20.5774H14.4369C15.1627 20.5774 15.7493 21.1519 15.7493 21.8627C15.7493 22.5735 15.1627 23.1481 14.4369 23.1481ZM14.4369 28.2895H6.56221C5.83643 28.2895 5.24977 27.715 5.24977 27.0042C5.24977 26.2947 5.83643 25.7188 6.56221 25.7188H14.4369C15.1627 25.7188 15.7493 26.2947 15.7493 27.0042C15.7493 27.715 15.1627 28.2895 14.4369 28.2895ZM36.7484 7.72373H33.9923L20.167 0.165797C19.5396 -0.176109 18.7364 0.0282503 18.3742 0.618232C18.012 1.20821 18.2272 1.96277 18.8545 2.30339L28.8409 7.72373H5.24977C2.35058 7.72373 0 10.0258 0 12.8652V30.8603C0 33.6996 2.35058 36.0017 5.24977 36.0017H36.7484C39.6476 36.0017 41.9982 33.6996 41.9982 30.8603V12.8652C41.9982 10.0258 39.6476 7.72373 36.7484 7.72373ZM27.5613 16.7213C24.6621 16.7213 22.3115 19.0234 22.3115 21.8627C22.3115 24.7021 24.6621 27.0042 27.5613 27.0042C30.4605 27.0042 32.8111 24.7021 32.8111 21.8627C32.8111 19.0234 30.4605 16.7213 27.5613 16.7213Z" fill="#2261A2"/>
</svg>
