<svg width="15" height="14" viewBox="0 0 15 14" fill="none" xmlns="http://www.w3.org/2000/svg">
<path d="M15 2.79601V11.2047C15 11.9789 14.686 12.667 14.1839 13.2045C13.6817 13.7206 13.033 14 12.2798 14H8.17905V12.2583H12.2798C12.8449 12.2583 13.2841 11.7848 13.2841 11.2047V2.79601C13.2841 2.2152 12.8449 1.76376 12.2798 1.76376H8.17905V0H12.2798C13.033 0 13.6817 0.301416 14.1839 0.817538C14.686 1.35499 15 2.02182 15 2.79601ZM10.5016 5.33396V8.68875C10.5016 9.07619 10.1668 9.39825 9.78989 9.39825H6.00315V12.0436C6.00315 12.2803 5.87728 12.4737 5.6684 12.581C5.58471 12.6023 5.50102 12.6023 5.45884 12.6023C5.31222 12.6023 5.18702 12.559 5.08191 12.4516L0.165042 7.39776C-0.0652688 7.20438 -0.0445141 6.81695 0.165042 6.60224L5.08191 1.5697C5.37515 1.24695 6.00248 1.44033 6.00248 1.95714V4.62377H9.78922C10.1662 4.62377 10.5016 4.94721 10.5016 5.33396Z" fill="#D23C96"/>
</svg>
